{"title":"Supergirl S01E04 How Does She Do It? 1080p HDTV X264-DIMENSION","uid":12838289,"size":2454704831,"categoryP":"video","categoryS":"hd___tv_shows","magnet":"?xt=urn:btih:0aa4e4d405c624afaa2bde28d9907bc29fc02c04&amp;dn=Supergirl+S01E04+How+Does+She+Do+It%3F+1080p+HDTV+X264-DIMENSION&amp;tr=udp%3A%2F%2Ftracker.leechers-paradise.org%3A6969&amp;tr=udp%3A%2F%2Fzer0day.ch%3A1337&amp;tr=udp%3A%2F%2Fopen.demonii.com%3A1337&amp;tr=udp%3A%2F%2Ftracker.coppersurfer.tk%3A6969&amp;tr=udp%3A%2F%2Fexodus.desync.com%3A6969","seeders":0,"leechers":0,"uploader":"cheerfulcaca","files":3,"time":1448479551,"description":"SEASON 1, EPISODE 4 &quot;HOW DOES SHE DO IT?&quot; BRIEF SYNOPSIS:\n\nKara must protect National City from a series of bombings and babysit Cat's son, while James is visited by Lucy Lane.\n\n\nSERIES INFO:\n\n6.3/10 IMDb\n7.6/10 TV.com\n\nAt 12 years old, Kara Zor-El escapes doom on planet Krypton to find protection on Earth with the Danver family, where she grows up in the shadow of her foster sister, Alex, and learns to hide the extraordinary powers she shares with her cousin, Superman. Now an adult living in National City and working for media mogul Cat Grant, Kara finds her days of keeping her abilities a secret are over when super-secret agency head Hank Henshaw enlists her to help protect the city's citizens from threats. Finally coming into her own, Kara must juggle her new responsibilities with her very human relationships.\n\n\nMEDIA INFO:\n\nVideo:\n\nID                          : 2\nFormat                      : AVC\nFormat/Info                 : Advanced Video Codec\nFormat profile              :   \nFormat settings, CABAC      : Yes\nFormat settings, ReFrames   : 4 frames\nCodec ID                    : V_MPEG4/ISO/AVC\nDuration                    : 44mn 36s\nBit rate                    : 6 806 Kbps\nWidth                       : 1 920 pixels\nHeight                      : 1 080 pixels\nDisplay aspect ratio        : 16:9\nFrame rate mode             : Constant\nFrame rate                  : 23.976 fps\nColor space                 : YUV\nChroma subsampling          : 4:2:0\nBit depth                   : 8 bits\nScan type                   : Progressive\nBits/(Pixel*Frame)          : 0.137\nStream size                 : 2.12 GiB (93%)\nWriting library             : x264 core 148 r2638 7599210\nEncoding settings           : cabac=1 / ref=4 / deblock=1:-3:-3 / analyse=0x3:0x133 / me=umh / subme=11 / psy=1 / psy_rd=1.00:0.00 / mixed_ref=1 / me_range=32 / chroma_me=1 / trellis=2 / 8x8dct=1 / cqm=0 / deadzone=21,11 / fast_pskip=0 / chroma_qp_offset=-2 / threads=20 / lookahead_threads=2 / sliced_threads=0 / nr=0 / decimate=1 / interlaced=0 / bluray_compat=0 / constrained_intra=0 / bframes=5 / b_pyramid=2 / b_adapt=2 / b_bias=0 / direct=3 / weightb=1 / open_gop=0 / weightp=2 / keyint=250 / keyint_min=23 / scenecut=40 / intra_refresh=0 / rc_lookahead=60 / rc=crf / mbtree=1 / crf=17.0 / qcomp=0.60 / qpmin=0 / qpmax=69 / qpstep=4 / ip_ratio=1.40 / aq=1:1.00\nLanguage                    : English\nDefault                     : No\nForced                      : No\nColor range                 : Limited\nMatrix coefficients         : BT.709\n\nAudio:\n\nID                          : 3\nFormat                      : AC-3\nFormat/Info                 : Audio Coding 3\nMode extension              : CM (complete main)\nFormat settings, Endianness : Big\nCodec ID                    : A_AC3\nDuration                    : 44mn 36s\nBit rate mode               : Constant\nBit rate                    : 384 Kbps\nChannel(s)                  : 6 channels\nChannel positions           : Front: L C R, Side: L R, LFE\nSampling rate               : 48.0 KHz\nCompression mode            : Lossy\nStream size                 : 123 MiB (5%)\nDefault                     : Yes\nForced                      : No\n\nText:\n\nID                          : 1\nFormat                      : UTF-8\nCodec ID                    : S_TEXT/UTF8\nCodec ID/Info               : UTF-8 Plain Text\nDefault                     : Yes\nForced                      : No\nDURATION                    : 00:44:36.798000000\nNUMBER_OF_FRAMES            : 64179\nNUMBER_OF_BYTES             : 2325529286\n_STATISTICS_WRITING_APP     : mkvmerge v8.5.2 ('Crosses') 64bit\n_STATISTICS_WRITING_DATE_UT : 2015-11-25 18:15:17\n_STATISTICS_TAGS            : BPS DURATION NUMBER_OF_FRAMES NUMBER_OF_BYTES\n\n\nDOWNLOADED FROM:  https://rarbg.to","torrent":{"xt":"urn:btih:0aa4e4d405c624afaa2bde28d9907bc29fc02c04","amp;dn":"Supergirl+S01E04+How+Does+She+Do+It%3F+1080p+HDTV+X264-DIMENSION","amp;tr":["udp%3A%2F%2Ftracker.leechers-paradise.org%3A6969","udp%3A%2F%2Fzer0day.ch%3A1337","udp%3A%2F%2Fopen.demonii.com%3A1337","udp%3A%2F%2Ftracker.coppersurfer.tk%3A6969","udp%3A%2F%2Fexodus.desync.com%3A6969"],"infoHash":"0aa4e4d405c624afaa2bde28d9907bc29fc02c04","infoHashBuffer":{"type":"Buffer","data":[10,164,228,212,5,198,36,175,170,43,222,40,217,144,123,194,159,192,44,4]},"announce":[],"urlList":[]}}